<svg width="34" height="18" viewBox="0 0 34 18" fill="none" xmlns="http://www.w3.org/2000/svg">
<rect width="34" height="18" rx="4" fill="#F39800"/>
<path d="M7.57422 9.2793H5.82227L5.81641 8.03711H7.30469C7.53906 8.03711 7.73047 7.99805 7.87891 7.91992C8.03125 7.83789 8.14258 7.71875 8.21289 7.5625C8.28711 7.40234 8.32422 7.20703 8.32422 6.97656C8.32422 6.71875 8.28906 6.51172 8.21875 6.35547C8.15234 6.19531 8.04492 6.07812 7.89648 6.00391C7.75195 5.92969 7.56055 5.89258 7.32227 5.89258H6.4082V13H4.69141V4.46875H7.32227C7.74805 4.46875 8.12891 4.51562 8.46484 4.60938C8.80078 4.70312 9.08398 4.8457 9.31445 5.03711C9.54883 5.22852 9.72852 5.4707 9.85352 5.76367C9.97852 6.05664 10.041 6.40234 10.041 6.80078C10.041 7.15234 9.9707 7.47656 9.83008 7.77344C9.68945 8.07031 9.46875 8.31445 9.16797 8.50586C8.87109 8.69336 8.48242 8.79688 8.00195 8.81641L7.57422 9.2793ZM7.50977 13H5.33594L6.02148 11.582H7.50977C7.74023 11.582 7.92383 11.5332 8.06055 11.4355C8.19727 11.3379 8.29688 11.207 8.35938 11.043C8.42578 10.875 8.45898 10.6836 8.45898 10.4688C8.45898 10.2266 8.42969 10.0156 8.37109 9.83594C8.31641 9.65625 8.22461 9.51953 8.0957 9.42578C7.9668 9.32812 7.79297 9.2793 7.57422 9.2793H6.09766L6.10938 8.03711H7.90234L8.30664 8.5293C8.76367 8.51367 9.12891 8.60156 9.40234 8.79297C9.67578 8.98047 9.87109 9.22656 9.98828 9.53125C10.1094 9.83203 10.1699 10.1523 10.1699 10.4922C10.1699 11.0391 10.0664 11.5 9.85938 11.875C9.65625 12.2461 9.35742 12.5273 8.96289 12.7188C8.56836 12.9062 8.08398 13 7.50977 13ZM16.3223 11.582V13H12.6133V11.582H16.3223ZM13.1465 4.46875V13H11.4297V4.46875H13.1465ZM15.8242 7.92578V9.30273H12.6133V7.92578H15.8242ZM16.3105 4.46875V5.89258H12.6133V4.46875H16.3105ZM20.8398 4.46875V13H19.1348V4.46875H20.8398ZM22.9609 4.46875V5.89258H17.0547V4.46875H22.9609ZM26.3418 5.99219L24.5078 13H22.6973L25.3633 4.46875H26.4941L26.3418 5.99219ZM27.7891 13L25.9434 5.99219L25.7734 4.46875H26.9219L29.6113 13H27.7891ZM27.8535 9.81836V11.2422H24.0039V9.81836H27.8535Z" fill="white"/>
</svg>
