<svg xmlns="http://www.w3.org/2000/svg" viewBox="0 0 182.91 40.79"><defs><style>.cls-1{fill:#8fc31f;}.cls-2{fill:#6fa80c;}.cls-3{fill:#fff;}.cls-4{fill:#444;}</style></defs><g id="レイヤー_2" data-name="レイヤー 2"><g id="レイヤー_4" data-name="レイヤー 4"><path class="cls-1" d="M41.24,36.37c-5.89,0-8.9,4.42-19,4.42C9.94,40.79,0,33,0,20.39S9.94,0,22.21,0c10.13,0,13.14,4.42,19,4.42S50.13,0,60.27,0C72.54,0,82.48,7.8,82.48,20.39s-9.94,20.4-22.21,20.4C50.13,40.79,47.13,36.37,41.24,36.37Z"/><path class="cls-2" d="M55.1,20.39c0,8.83-6.2,16-13.86,16s-13.86-7.15-13.86-16,6.2-16,13.86-16S55.1,11.57,55.1,20.39Z"/><path class="cls-3" d="M14.24,28.11h-4v-12H6.92v-3.4H17.56v3.4H14.24Z"/><path class="cls-3" d="M37.34,20.11a8.2,8.2,0,0,1-8.53,8.51,8.2,8.2,0,0,1-8.53-8.51c0-4.67,4.09-7.94,8.53-7.94S37.34,15.44,37.34,20.11Z"/><path class="cls-3" d="M56.63,19.49c0,2.25-.2,4.18-1.57,6.1a7.45,7.45,0,0,1-6.36,3,7.81,7.81,0,0,1-8.23-8.15c0-5,3.4-8.3,8.37-8.3a7.17,7.17,0,0,1,7,4.32L52,18.08a3.48,3.48,0,0,0-3.33-2.45c-2.64,0-4,2.51-4,4.87s1.43,4.82,4.07,4.82A2.91,2.91,0,0,0,52,22.64H48.68V19.49Z"/><path class="cls-3" d="M76.81,20.11a8.53,8.53,0,0,1-17.06,0c0-4.67,4.09-7.94,8.53-7.94S76.81,15.44,76.81,20.11Z"/><path class="cls-4" d="M85.81,27.66l2.56-15.08h3.88l3,8,3-8h3.88l2.56,15.08h-3.9L99.51,19,96,27.66H94.39L91,19l-1.3,8.68Z"/><path class="cls-4" d="M117.17,15.9h-4.66v2.52h4.4v3.32h-4.4v2.6h4.66v3.32h-8.58V12.58h8.58Z"/><path class="cls-4" d="M121.79,12.58h5.8a6.91,6.91,0,0,1,2.89.62,7.71,7.71,0,0,1,4,4.05,7.4,7.4,0,0,1,0,5.72,7.69,7.69,0,0,1-1.58,2.41A7.87,7.87,0,0,1,130.5,27a6.94,6.94,0,0,1-2.91.62h-5.8Zm3.92,11.76h.9a5,5,0,0,0,1.82-.32,3.73,3.73,0,0,0,2.19-2.21,4.83,4.83,0,0,0,.29-1.69,4.64,4.64,0,0,0-.3-1.68,3.77,3.77,0,0,0-2.2-2.22,4.93,4.93,0,0,0-1.8-.32h-.9Z"/><path class="cls-4" d="M142.83,12.58V27.66h-3.92V12.58Z"/><path class="cls-4" d="M151.71,12.58v8.2c0,.44,0,.89,0,1.35a3.53,3.53,0,0,0,.3,1.25,2,2,0,0,0,.79.91,3.45,3.45,0,0,0,3,0,2.24,2.24,0,0,0,.79-.91,3.76,3.76,0,0,0,.31-1.25c0-.46.05-.91.05-1.35v-8.2h3.9v8.74q0,3.53-1.61,5.14a8.39,8.39,0,0,1-9.91,0q-1.62-1.62-1.62-5.14V12.58Z"/><path class="cls-4" d="M164,27.66l2.56-15.08h3.88l3,8,3-8h3.88l2.56,15.08H179L177.71,19l-3.56,8.68h-1.56L169.21,19l-1.3,8.68Z"/></g></g></svg>