<?xml version="1.0" encoding="utf-8"?>
<!-- Generator: Adobe Illustrator 24.1.0, SVG Export Plug-In . SVG Version: 6.00 Build 0)  -->
<svg version="1.1" id="レイヤー_1" xmlns="http://www.w3.org/2000/svg" xmlns:xlink="http://www.w3.org/1999/xlink" x="0px"
	 y="0px" viewBox="0 0 183 40.8" style="enable-background:new 0 0 183 40.8;" xml:space="preserve">
<style type="text/css">
	.st0{fill:#8FC31F;}
	.st1{fill:#6FA80C;}
	.st2{fill:#FFFFFF;}
	.st3{fill:#444444;}
</style>
<path class="st0" d="M41.2,36.4c-5.9,0-8.9,4.4-19,4.4C9.9,40.8,0,33,0,20.4S9.9,0,22.2,0c10.1,0,13.1,4.4,19,4.4S50.1,0,60.3,0
	c12.3,0,22.2,7.8,22.2,20.4s-9.9,20.4-22.2,20.4C50.1,40.8,47.1,36.4,41.2,36.4z"/>
<path class="st1" d="M55.1,20.4c0,8.8-6.2,16-13.9,16s-13.9-7.1-13.9-16s6.2-16,13.9-16S55.1,11.6,55.1,20.4z"/>
<path class="st2" d="M14.2,28.1h-4v-12H6.9v-3.4h10.6v3.4h-3.3V28.1z"/>
<path class="st2" d="M37.3,20.1c0.2,4.5-3.4,8.3-7.9,8.5c-0.2,0-0.4,0-0.7,0c-4.5,0.2-8.3-3.3-8.5-7.9c0-0.2,0-0.4,0-0.7
	c0-4.7,4.1-7.9,8.5-7.9S37.3,15.4,37.3,20.1z"/>
<path class="st2" d="M56.6,19.5c0,2.2-0.2,4.2-1.6,6.1c-1.5,2-3.9,3.1-6.4,3c-4.3,0.2-8-3.1-8.2-7.4c0-0.3,0-0.5,0-0.8
	c0-5,3.4-8.3,8.4-8.3c3-0.2,5.8,1.6,7,4.3L52,18.1c-0.5-1.5-1.8-2.5-3.3-2.4c-2.6,0-4,2.5-4,4.9s1.4,4.8,4.1,4.8
	c1.6,0.2,3-0.9,3.2-2.5v-0.1h-3.3v-3.1h7.9V19.5z"/>
<path class="st2" d="M76.8,20.1c0,4.7-3.8,8.5-8.5,8.5s-8.5-3.8-8.5-8.5s4.1-7.9,8.5-7.9S76.8,15.4,76.8,20.1z"/>
<g>
	<path class="st3" d="M85.8,29.7l2.6-15.1h3.9l3,8l3-8h3.9l2.6,15.1h-3.9L99.5,21L96,29.7h-1.6L91,21l-1.3,8.7H85.8z"/>
	<path class="st3" d="M117.2,17.9h-4.7v2.5h4.4v3.3h-4.4v2.6h4.7v3.3h-8.6v-15h8.6V17.9z"/>
	<path class="st3" d="M121.8,14.6h5.8c1,0,2,0.2,2.9,0.6c1.8,0.8,3.2,2.2,4,4.1c0.8,1.8,0.8,3.9,0,5.7c-0.4,0.9-0.9,1.7-1.6,2.4
		s-1.5,1.2-2.4,1.6s-1.9,0.6-2.9,0.6h-5.8L121.8,14.6z M125.7,26.3h0.9c0.6,0,1.2-0.1,1.8-0.3c1-0.4,1.8-1.2,2.2-2.2
		c0.2-0.5,0.3-1.1,0.3-1.7s-0.1-1.1-0.3-1.7c-0.4-1-1.2-1.8-2.2-2.2c-0.6-0.2-1.2-0.3-1.8-0.3h-0.9V26.3z"/>
	<path class="st3" d="M142.8,14.6v15.1h-3.9V14.6H142.8z"/>
	<path class="st3" d="M151.7,14.6v8.2v1.4c0,0.4,0.1,0.9,0.3,1.2c0.2,0.4,0.4,0.7,0.8,0.9c0.9,0.5,2.1,0.5,3,0
		c0.3-0.2,0.6-0.5,0.8-0.9s0.3-0.8,0.3-1.2c0-0.5,0.1-0.9,0.1-1.4v-8.2h3.9v8.7c0,2.4-0.5,4.1-1.6,5.1c-3,2.2-7,2.2-9.9,0
		c-1.1-1.1-1.6-2.8-1.6-5.1v-8.7L151.7,14.6z"/>
	<path class="st3" d="M164,29.7l2.6-15.1h3.9l3,8l3-8h3.9l2.6,15.1h-4l-1.3-8.7l-3.6,8.7h-1.6l-3.4-8.7l-1.3,8.7H164z"/>
</g>
</svg>
